<svg width="218" height="218" viewBox="-30 0 218 218" fill="none" xmlns="http://www.w3.org/2000/svg">
<path fill-rule="evenodd" clip-rule="evenodd" d="M79.787 104.679C65.2466 116.929 53.3476 130.887 49.6109 151.014H49.6251C50.0842 151.014 50.4504 151.032 50.7543 151.048C51.2594 151.073 51.5938 151.09 51.9009 151C54.6306 150.156 57.3719 149.345 60.1132 148.535C66.5413 146.634 72.97 144.734 79.2532 142.399C111.325 130.496 121.497 101.074 111.199 68.842C111.038 68.8735 110.873 68.8936 110.706 68.9137C110.334 68.9592 109.96 69.0047 109.64 69.1747C105.993 71.1402 102.34 73.0937 98.6873 75.0472C88.7745 80.3482 78.8611 85.6505 69.0677 91.1837C58.7848 96.9906 51.0861 105.374 47.3494 117.132C47.2039 117.592 46.8384 117.978 46.6371 118.191C46.5845 118.245 46.5436 118.289 46.5202 118.319C45.4482 117.311 44.4444 116.222 43.4542 115.15C41.318 112.834 39.2494 110.592 36.7145 109.385C28.6068 105.512 20.2983 102.069 11.9016 98.5894C8.55685 97.2028 5.19797 95.8114 1.83247 94.384C-2.35401 108.835 0.694504 121.331 10.3457 132.22C19.1121 142.124 30.0696 146.337 43.5282 145.628C41.0135 133.769 34.9023 124.705 27.3302 116.422C34.0849 120.002 37.8255 126.148 41.6927 132.504C43.488 135.455 45.3112 138.45 47.4753 141.255C53.6709 124.198 63.9967 111.832 79.787 104.679ZM63.2377 165.899C59.7464 165.899 56.9161 168.817 56.9161 172.416C56.9161 176.014 59.7464 178.931 63.2377 178.931H116.06C119.551 178.931 122.382 176.014 122.382 172.416C122.382 168.817 119.551 165.899 116.06 165.899H63.2377ZM62.9572 188.453C62.9572 184.854 65.7875 181.937 69.2787 181.937H109.738C113.23 181.937 116.06 184.854 116.06 188.453C116.06 192.051 113.23 194.969 109.738 194.969H69.2787C65.7875 194.969 62.9572 192.051 62.9572 188.453ZM73.7667 197.684C70.6676 197.684 68.1548 200.274 68.1548 203.469C68.1548 206.097 69.7073 208.46 72.0746 209.436L77.2339 211.563C78.1903 211.957 79.0364 212.591 79.6961 213.406C84.656 219.542 93.7988 219.542 98.7588 213.406C99.4185 212.591 100.264 211.957 101.221 211.563L106.38 209.436C108.748 208.46 110.3 206.097 110.3 203.469C110.3 200.274 107.787 197.684 104.688 197.684H73.7667Z" fill="#338449"/>
<path fill-rule="evenodd" clip-rule="evenodd" d="M153.649 30.8877C155.012 29.5809 156.377 28.2718 157.748 26.9621H157.734C157.461 26.5937 157.23 26.265 157.021 25.9671C156.636 25.4204 156.325 24.9775 155.961 24.5832C155.694 24.288 155.429 23.9905 155.164 23.6929C154.1 22.4987 153.034 21.3026 151.851 20.2459C137.256 7.19055 119.974 0.996473 100.932 0.126137C80.1869 -0.816811 60.371 3.41896 43.5808 16.4889C20.0211 34.8389 11.2391 59.9779 14.4904 89.9033C14.8559 93.3124 16.7558 94.966 19.7399 95.822C28.5639 98.3604 37.121 101.494 44.4957 107.76C44.7223 107.491 44.9489 107.224 45.1748 106.957C49.3031 102.088 53.1865 97.5064 50.7445 90.3825C50.3842 89.3251 50.2783 88.1807 50.1725 87.0343C50.1173 86.4347 50.0621 85.835 49.9706 85.2474C45.4807 56.83 64.7622 32.3149 92.7125 30.7482C108.292 29.8633 121.691 34.9405 133.273 45.5588C134.16 46.3711 136.412 47.111 136.947 46.6178C142.586 41.4933 148.097 36.2099 153.649 30.8877ZM66.2277 151.802C65.6745 152.003 65.031 152.238 64.2415 152.511C64.9972 152.864 65.6017 153.167 66.1121 153.423C67.0081 153.873 67.6159 154.178 68.2528 154.354C97.8361 162.52 125.618 158.009 151.486 141.313C153.273 140.167 154.933 137.15 154.962 134.988C155.115 122.566 155.072 110.138 155.029 97.7065C155.01 91.905 154.99 86.1027 154.99 80.3005C154.99 77.7039 154.005 76.7903 151.443 76.8338C143.576 76.9791 135.695 77.0513 127.827 76.8051C124.224 76.6886 123.267 77.9943 123.324 81.5339C123.415 87.0316 123.401 92.5294 123.387 98.0271C123.373 103.525 123.359 109.023 123.45 114.52C123.52 119.119 122.183 122.034 117.75 123.877C113.908 125.472 109.911 127.59 107.026 130.549C96.2453 141.589 83.0581 147.478 68.6041 151.018C67.8951 151.193 67.2023 151.446 66.2277 151.802Z" fill="#338449"/>
</svg>
